<?xml version="1.0" standalone="no"?>
<!DOCTYPE svg PUBLIC "-//W3C//DTD SVG 20010904//EN"
 "http://www.w3.org/TR/2001/REC-SVG-20010904/DTD/svg10.dtd">
<svg version="1.0" xmlns="http://www.w3.org/2000/svg"
 width="842.000000pt" height="845.000000pt" viewBox="0 0 842.000000 845.000000"
 preserveAspectRatio="xMidYMid meet">

<g transform="translate(0.000000,845.000000) scale(0.100000,-0.100000)"
fill="#000000" stroke="none">
<path d="M3845 8269 c-424 -46 -796 -134 -1157 -275 -434 -169 -865 -437
-1235 -768 -169 -151 -248 -232 -391 -405 -349 -418 -595 -859 -762 -1361
-115 -349 -181 -710 -201 -1103 -10 -201 -10 -262 5 -456 72 -968 442 -1822
1090 -2520 292 -314 673 -614 1005 -791 57 -30 139 -79 184 -109 101 -68 167
-97 292 -132 55 -15 172 -50 260 -78 475 -152 868 -209 1365 -198 436 10 775
68 1203 208 658 214 1297 635 1761 1159 87 99 228 275 276 347 8 11 36 50 61
86 125 174 324 547 415 777 266 674 354 1426 249 2111 -9 57 -20 129 -25 159
-33 217 -161 639 -266 878 -175 394 -340 664 -605 987 -122 150 -312 350 -414
437 -38 33 -92 79 -120 103 -98 84 -257 202 -393 291 -553 365 -1227 596
-1907 654 -141 12 -575 11 -690 -1z m835 -183 c355 -47 691 -134 995 -258 295
-120 539 -255 855 -475 233 -162 571 -492 791 -773 228 -291 457 -709 582
-1061 97 -271 144 -455 186 -729 71 -458 68 -827 -8 -1283 -138 -819 -538
-1577 -1137 -2157 -504 -487 -1111 -825 -1787 -996 -317 -80 -572 -109 -957
-109 -389 0 -598 24 -935 105 -267 65 -536 161 -784 281 -864 419 -1566 1166
-1925 2052 -76 188 -112 293 -153 447 -58 222 -73 295 -104 515 -116 828 43
1691 449 2425 437 791 1119 1402 1952 1748 313 130 699 231 1021 267 74 8 150
16 169 19 92 11 671 -2 790 -18z"/>
<path d="M4018 7979 c-739 -33 -1418 -269 -2048 -714 -266 -187 -588 -503
-811 -795 -291 -382 -531 -874 -639 -1312 -11 -46 -27 -108 -35 -138 -108
-428 -124 -1027 -39 -1500 72 -397 207 -790 387 -1125 100 -187 112 -207 204
-343 318 -468 720 -853 1194 -1143 74 -45 146 -90 161 -101 15 -10 58 -32 95
-48 37 -15 106 -45 153 -65 341 -147 677 -242 1050 -297 139 -20 192 -22 510
-22 372 0 428 4 705 55 392 72 810 222 1135 407 128 72 290 173 348 215 211
155 349 272 517 441 604 606 980 1386 1080 2241 23 192 30 523 16 700 -35 438
-103 735 -266 1170 -26 69 -149 324 -202 420 -87 155 -183 301 -302 460 -451
600 -1115 1074 -1836 1309 -335 109 -649 168 -968 181 -78 3 -164 7 -192 9
-27 1 -125 -1 -217 -5z m405 -405 c65 -22 109 -67 105 -108 -3 -29 -6 -31 -49
-34 -38 -2 -52 2 -79 24 -68 58 -193 37 -176 -29 6 -24 11 -27 49 -27 49 0 67
-13 67 -50 0 -37 -18 -50 -70 -50 -51 0 -70 -13 -70 -46 0 -34 37 -54 100 -54
82 0 93 12 99 106 l6 79 100 -2 c55 -2 106 -5 113 -8 16 -6 16 -59 -1 -73 -6
-6 -28 -12 -47 -14 -32 -3 -35 -6 -42 -46 -18 -109 -78 -147 -233 -147 -90 0
-106 3 -158 28 -65 32 -87 64 -87 126 0 31 7 49 30 74 36 41 36 42 10 74 -51
65 -10 148 90 184 64 23 164 20 243 -7z m585 -84 c28 -7 54 -16 57 -20 3 -4
-10 -68 -29 -141 -18 -74 -41 -168 -50 -209 -26 -111 -25 -110 -51 -110 -42 0
-124 23 -129 36 -3 7 6 52 18 101 13 48 36 140 51 203 36 150 41 162 63 157 9
-3 41 -11 70 -17z m214 -44 c35 -14 126 -47 202 -75 76 -27 144 -55 149 -60 7
-7 6 -23 -3 -51 -20 -61 -31 -66 -100 -45 -32 10 -65 15 -72 13 -7 -3 -37 -74
-67 -157 -30 -83 -58 -154 -62 -157 -13 -8 -130 37 -136 52 -5 14 11 69 61
207 20 54 36 104 36 113 0 14 -24 27 -97 54 -18 7 -33 18 -33 25 0 23 39 105
50 105 5 0 38 -11 72 -24z m-1422 -12 c6 -14 10 -41 10 -59 0 -32 -3 -35 -41
-45 -60 -16 -70 -46 -51 -161 11 -62 12 -93 5 -100 -6 -6 -38 -13 -72 -16
l-60 -6 -7 42 c-8 50 -19 52 -38 7 -28 -67 -128 -116 -240 -116 -77 0 -119 24
-156 90 -37 67 -36 163 3 213 32 42 84 72 154 87 71 17 128 5 172 -35 39 -36
72 -109 55 -125 -5 -5 -58 -23 -119 -39 -60 -17 -114 -36 -119 -41 -17 -17 8
-45 42 -48 40 -4 70 12 78 43 4 18 18 28 56 41 27 9 58 14 69 11 10 -3 21 -2
23 1 2 4 -4 54 -14 112 -11 65 -14 109 -9 116 15 18 86 26 109 12 16 -10 23
-9 42 9 46 41 94 45 108 7z m-853 -121 c19 -47 29 -54 61 -42 30 11 39 6 56
-34 13 -31 13 -33 -17 -59 l-31 -26 23 -59 c32 -78 37 -83 82 -83 33 0 41 -4
49 -26 6 -14 10 -31 10 -39 0 -20 -98 -65 -144 -65 -54 0 -78 25 -117 124 -35
87 -42 96 -68 89 -22 -6 -39 15 -47 55 -5 24 -2 32 16 42 19 10 21 17 15 65
-7 53 -7 54 26 74 50 30 68 27 86 -16z m3069 -238 c82 -53 157 -104 167 -114
18 -18 18 -20 -8 -60 -15 -22 -33 -41 -40 -41 -7 0 -54 27 -105 61 -96 62
-123 69 -128 32 -3 -18 13 -32 83 -77 l85 -56 -20 -40 c-12 -23 -27 -43 -35
-46 -8 -3 -52 17 -98 45 -90 55 -102 59 -111 35 -12 -33 -4 -43 72 -90 42 -26
92 -59 110 -72 28 -22 35 -23 46 -11 7 8 41 47 75 87 35 39 69 72 76 72 28 0
75 -51 75 -81 0 -25 4 -29 26 -29 70 0 146 -71 146 -136 0 -36 -48 -119 -92
-159 -31 -28 -24 -40 22 -39 39 1 44 4 54 34 37 110 137 108 243 -6 44 -47 55
-54 88 -54 28 0 45 -8 70 -32 18 -18 33 -40 33 -50 0 -21 -38 -33 -79 -25 -31
6 -51 -7 -51 -34 0 -27 -53 -59 -95 -59 -45 0 -88 25 -138 80 -21 22 -42 40
-47 40 -23 0 -7 -33 40 -84 60 -68 80 -104 80 -151 0 -34 1 -35 22 -24 12 6
68 45 125 85 57 41 109 74 116 74 17 -1 79 -86 75 -104 -4 -22 -278 -215 -295
-209 -7 3 -28 26 -44 50 -26 37 -35 44 -53 38 -44 -15 -98 -17 -126 -5 -27 11
-174 163 -213 220 -25 37 -21 75 13 113 l30 34 -40 37 c-22 20 -40 41 -40 45
0 5 34 47 75 94 83 95 95 130 49 147 -35 14 -53 2 -125 -83 -34 -39 -68 -76
-76 -80 -14 -9 -83 41 -107 78 -8 12 -89 68 -180 126 -110 69 -166 110 -166
121 0 24 239 398 254 398 7 0 79 -43 162 -95z m-3208 -2 c84 -143 133 -237
128 -249 -9 -24 -84 -56 -105 -45 -15 8 -22 4 -42 -27 -53 -81 -134 -104 -203
-57 l-36 24 0 -52 c0 -39 -6 -61 -24 -88 -24 -35 -78 -69 -110 -69 -25 0 -19
-18 24 -72 22 -28 40 -54 40 -58 0 -12 -87 -80 -102 -80 -8 0 -29 20 -48 45
-19 25 -39 45 -45 45 -6 0 -29 -18 -50 -40 -21 -22 -43 -40 -48 -40 -5 0 -49
36 -97 80 -48 44 -94 80 -102 80 -22 0 -38 -21 -38 -51 0 -22 17 -44 80 -101
44 -40 80 -80 80 -88 0 -9 -20 -35 -44 -59 l-44 -43 -88 81 c-89 81 -120 95
-144 66 -22 -27 -2 -62 80 -138 44 -40 80 -78 80 -82 0 -4 -16 -28 -36 -51
-34 -42 -66 -56 -79 -34 -15 23 -21 6 -21 -52 1 -53 -4 -72 -30 -118 -41 -72
-100 -117 -164 -126 -28 -4 -50 -10 -50 -14 0 -4 7 -25 16 -46 23 -54 13 -132
-26 -210 -68 -139 -183 -176 -330 -108 -104 48 -154 114 -152 204 2 181 152
321 286 270 33 -12 32 -32 -2 -95 -23 -41 -32 -50 -52 -47 -72 8 -123 -66 -89
-129 13 -25 124 -79 162 -79 33 0 73 36 83 74 6 24 0 37 -40 91 -5 7 1 34 19
73 l27 61 -22 23 c-72 75 -64 186 20 282 52 59 102 80 174 72 l60 -6 -52 53
c-28 29 -52 59 -52 67 0 25 52 70 82 70 22 0 28 5 28 20 0 27 33 90 59 114 12
11 37 22 58 25 33 6 37 10 53 59 21 63 50 97 97 113 46 15 81 1 151 -59 103
-88 104 -84 5 47 -35 46 -63 89 -63 96 0 19 78 67 99 60 15 -4 24 5 42 42 40
80 125 109 204 70 11 -5 35 -23 53 -40 41 -40 41 -22 -3 57 -19 35 -35 69 -35
75 0 12 91 61 113 61 7 0 37 -42 65 -94 58 -105 71 -119 104 -114 35 5 47 51
24 91 -10 18 -36 64 -58 104 l-39 72 48 30 c26 17 55 31 64 31 10 0 33 -28 57
-67z m1816 -512 c349 -68 631 -180 902 -361 625 -416 1028 -1083 1085 -1800
12 -155 7 -430 -11 -566 -13 -101 -71 -339 -111 -459 -46 -138 -180 -403 -270
-538 -557 -831 -1547 -1237 -2517 -1032 -470 98 -889 330 -1234 681 -356 363
-586 824 -665 1334 -22 143 -25 538 -5 675 79 548 316 1021 703 1402 157 154
304 266 504 385 211 125 509 233 755 273 186 30 248 33 500 31 211 -3 274 -7
364 -25z m2364 -386 l34 -50 -27 -22 c-38 -33 -58 -29 -93 21 -38 53 -39 62
-9 87 34 29 58 19 95 -36z m-11 -231 c14 -23 21 -49 18 -64 -4 -20 2 -29 27
-45 79 -49 103 -148 51 -204 -42 -44 -243 -156 -261 -145 -21 14 -64 94 -58
109 3 8 35 30 73 51 109 59 135 82 131 112 -2 18 -11 30 -30 36 -22 8 -41 1
-127 -48 -56 -31 -105 -55 -110 -52 -14 9 -61 93 -61 109 0 16 298 189 315
184 5 -2 20 -21 32 -43z m199 -412 c49 -36 96 -126 102 -197 5 -60 -13 -102
-61 -146 -33 -31 -32 -32 36 -44 81 -13 147 -119 147 -236 0 -69 -22 -112 -77
-148 -68 -45 -92 -40 -113 27 -10 30 -21 72 -24 95 -16 104 -40 131 -72 82
-23 -35 -10 -82 29 -106 26 -15 35 -30 48 -81 11 -40 22 -63 30 -62 8 0 57 4
110 8 94 6 97 6 103 -16 10 -37 7 -83 -6 -96 -9 -9 -6 -17 12 -37 16 -17 24
-37 24 -67 l1 -43 -45 -7 c-64 -9 -77 -3 -84 41 -9 60 -21 65 -146 57 -125 -8
-119 -12 -123 74 l-2 55 42 9 41 10 -42 26 c-49 31 -82 92 -98 180 -13 70 -5
121 27 159 33 38 31 48 -9 55 -72 14 -156 149 -156 252 0 105 88 184 206 184
51 0 67 -5 100 -28z m-6218 -398 c16 -5 22 -14 22 -34 0 -34 23 -56 37 -38 5
7 13 21 17 32 5 15 13 17 38 12 45 -9 58 -23 52 -56 -7 -32 -7 -32 154 -71 52
-12 96 -28 98 -34 9 -23 -23 -120 -40 -123 -10 -2 -64 8 -120 22 -125 31 -130
32 -148 5 -13 -20 -17 -21 -51 -10 -28 10 -37 18 -37 36 0 16 -9 26 -30 35
-17 7 -42 26 -56 43 -24 28 -26 38 -21 88 8 91 24 109 85 93z m275 -339 c62
-29 91 -76 95 -155 7 -110 -34 -197 -107 -227 -52 -22 -160 -13 -203 17 -63
43 -73 65 -73 165 0 80 3 95 27 136 50 85 161 113 261 64z m6372 -371 c12 -12
15 -31 13 -73 l-3 -56 -45 0 -45 0 -6 55 c-7 69 -4 78 29 83 15 2 30 5 34 6 4
0 14 -6 23 -15z m-137 -6 c7 -7 12 -38 12 -70 0 -70 14 -65 -206 -73 l-162 -6
-6 23 c-10 38 -7 106 6 114 11 7 169 19 289 22 31 1 60 -3 67 -10z m6 -207 c6
-5 10 -31 8 -60 -3 -38 -8 -52 -22 -56 -18 -6 -18 -8 2 -52 29 -66 21 -134
-21 -176 -31 -31 -33 -32 -121 -31 -94 2 -104 -3 -77 -40 12 -17 17 -17 49 -6
47 17 94 4 122 -33 22 -29 26 -89 15 -209 -3 -38 0 -51 19 -71 24 -25 25 -42
5 -110 -8 -29 -45 -16 -72 25 -23 35 -27 37 -62 32 -48 -8 -92 9 -116 45 -15
21 -18 43 -16 125 2 80 0 96 -10 88 -7 -6 -19 -42 -26 -79 -20 -98 -39 -142
-72 -158 -87 -45 -189 21 -189 123 0 16 11 85 25 153 21 106 28 127 52 148 23
20 34 22 73 18 l47 -6 9 52 9 52 118 -3 c127 -3 147 3 147 43 0 41 -28 52
-145 60 -60 3 -113 11 -116 17 -6 10 -1 91 7 117 4 12 33 13 176 8 94 -4 176
-11 182 -16z m-6180 -85 c11 -77 5 -81 -125 -90 -114 -7 -139 -16 -139 -51 0
-45 29 -54 160 -48 l118 6 7 -62 c4 -35 3 -67 -1 -71 -13 -13 -353 -35 -363
-24 -5 5 -11 28 -15 51 -5 35 -3 44 15 57 l21 15 -23 32 c-34 49 -39 144 -9
182 13 16 34 33 49 39 26 11 195 26 261 24 35 -1 35 -1 44 -60z m-46 -370 c70
-37 112 -117 112 -215 0 -72 -23 -117 -78 -156 -39 -27 -51 -30 -120 -30 -64
0 -82 4 -109 23 -76 54 -110 212 -65 298 40 77 182 121 260 80z m185 -447 c10
-28 17 -64 17 -80 0 -15 5 -31 11 -35 18 -11 49 -94 49 -132 -1 -59 -9 -64
-197 -142 -16 -7 -23 -18 -23 -38 0 -48 -73 -71 -98 -31 -12 19 -20 20 -66 15
l-53 -7 -18 40 c-22 49 -16 66 31 86 35 14 36 17 30 53 -5 35 -3 40 20 50 39
19 63 14 76 -13 14 -32 22 -31 103 5 l66 30 -4 40 c-2 22 -6 42 -9 46 -3 3
-61 -13 -128 -35 -67 -22 -127 -38 -134 -35 -18 7 -50 114 -38 126 12 12 301
107 328 108 16 0 24 -11 37 -51z m-392 -134 c24 -69 24 -72 -16 -85 -49 -16
-60 -9 -79 46 -21 62 -20 73 7 84 47 20 69 8 88 -45z m6056 32 c3 -4 -5 -34
-18 -67 -21 -54 -28 -62 -60 -70 -28 -8 -40 -18 -54 -49 -35 -78 5 -96 58 -27
90 118 126 146 188 146 70 0 139 -73 139 -147 0 -47 -35 -149 -66 -194 -34
-50 -85 -81 -134 -83 -60 -1 -65 11 -34 83 20 45 33 63 51 67 28 7 53 40 53
71 0 38 -21 38 -54 0 -17 -19 -51 -59 -76 -88 -55 -65 -96 -84 -149 -69 -75
20 -121 78 -121 153 0 46 34 140 70 196 27 42 50 64 90 83 17 9 107 4 117 -5z
m-5542 -244 c27 -30 50 -96 41 -119 -3 -8 6 -24 21 -37 71 -60 96 -103 97
-165 1 -37 -4 -48 -32 -73 -25 -23 -42 -29 -77 -29 -53 0 -96 33 -147 111 -32
50 -54 61 -65 33 -9 -23 12 -61 42 -76 31 -15 80 -100 72 -122 -9 -22 -65 -20
-104 3 -58 36 -132 166 -133 233 0 61 17 82 106 134 73 42 84 52 84 76 0 20 8
32 28 42 36 20 37 20 67 -11z m5355 -219 c42 -24 81 -44 85 -44 5 0 16 7 26
16 16 14 20 14 47 0 40 -20 45 -31 32 -57 -10 -18 -7 -26 24 -58 42 -43 43
-52 15 -97 -24 -40 -35 -41 -84 -13 -35 21 -36 21 -50 3 -8 -11 -15 -22 -15
-26 0 -15 -48 -8 -71 11 -21 17 -22 20 -9 51 16 38 11 43 -72 86 -59 30 -66
30 -99 -2 l-28 -26 115 -85 c68 -51 114 -92 114 -102 0 -21 -57 -101 -72 -101
-6 0 -55 32 -109 71 -83 59 -101 69 -118 60 -25 -14 -35 -45 -21 -70 5 -11 48
-48 95 -82 47 -34 85 -66 85 -71 0 -15 -60 -99 -75 -105 -15 -5 -283 190 -292
213 -8 22 44 84 71 84 20 0 25 6 30 43 12 81 75 147 140 147 l29 0 -21 23
c-27 29 -27 42 -1 92 58 109 97 116 229 39z m-5093 -203 c17 -26 28 -52 25
-58 -12 -17 -273 -196 -289 -197 -16 -1 -81 79 -82 100 -1 7 50 48 112 92 139
99 177 122 191 116 6 -3 25 -26 43 -53z m57 -142 c21 -6 60 -30 87 -55 88 -83
112 -179 65 -261 l-25 -43 49 25 c27 14 65 25 85 25 107 0 235 -129 235 -238
0 -20 3 -22 23 -15 89 32 253 -60 287 -161 11 -35 14 -37 43 -30 82 18 170
-10 252 -79 23 -19 67 -41 104 -52 74 -22 91 -36 91 -75 0 -26 5 -30 62 -49
77 -26 90 -26 113 -1 10 11 25 20 34 20 9 0 41 -9 71 -20 30 -11 56 -20 57
-20 14 0 -18 -44 -148 -206 -83 -104 -156 -192 -162 -195 -12 -8 -152 38 -166
54 -5 7 -13 97 -17 201 l-7 188 -54 26 c-42 21 -56 33 -60 54 -7 34 -23 48
-60 51 -45 3 -34 -21 31 -72 33 -26 68 -63 79 -84 17 -34 18 -41 6 -74 -8 -20
-26 -45 -41 -56 -69 -52 -245 11 -294 105 -18 35 -18 77 1 84 24 10 104 -33
115 -61 11 -30 55 -54 71 -38 10 10 -20 41 -85 87 -37 27 -66 78 -66 117 0 29
-6 38 -45 62 -27 17 -45 36 -45 47 0 10 -3 26 -6 35 -9 22 -57 45 -73 36 -18
-11 -1 -41 42 -78 48 -40 77 -86 77 -122 0 -89 -74 -132 -171 -100 -49 17
-136 84 -154 120 -21 39 -16 103 7 107 20 4 98 -46 98 -63 0 -19 40 -65 56
-65 29 0 12 37 -42 89 -32 31 -58 66 -61 83 -7 35 -15 35 -58 3 -80 -62 -159
-53 -249 27 -31 27 -63 66 -71 85 -27 65 -15 142 33 196 22 25 -2 22 -39 -5
-21 -16 -47 -23 -92 -26 -54 -3 -67 0 -102 23 -47 32 -100 97 -122 153 -20 51
-11 105 24 140 l25 25 39 -44 c34 -39 38 -48 33 -82 -7 -42 13 -81 45 -92 26
-8 72 16 105 55 32 38 33 59 4 95 -18 23 -26 26 -60 22 -35 -5 -41 -2 -73 36
-19 22 -35 47 -35 54 0 14 53 42 80 43 8 0 32 -5 54 -11z m-406 -83 c18 -24
32 -51 32 -59 0 -16 -50 -57 -68 -57 -11 0 -72 91 -72 108 0 13 48 52 65 52 6
0 26 -20 43 -44z m5018 -82 c45 -21 119 -105 134 -150 24 -73 -16 -160 -85
-185 -19 -7 -35 -18 -35 -24 0 -6 20 -31 45 -55 25 -24 45 -50 45 -56 0 -13
-74 -94 -85 -94 -4 0 -53 43 -110 95 -56 52 -105 95 -108 95 -2 0 2 -23 10
-51 21 -71 5 -125 -54 -184 -98 -96 -220 -112 -287 -36 -41 46 -44 20 -5 -48
21 -37 39 -73 39 -79 0 -6 -19 -22 -42 -36 -33 -20 -46 -23 -62 -14 -16 9 -22
7 -31 -7 -39 -67 -92 -105 -145 -105 -58 0 -82 23 -158 149 -39 66 -72 125
-72 131 0 13 90 70 110 70 9 0 36 -38 64 -88 27 -48 56 -95 64 -104 17 -21 53
-23 70 -6 22 22 13 56 -36 141 -69 120 -69 113 -15 147 60 38 76 38 102 -2 20
-32 21 -32 21 -8 1 40 37 110 78 147 78 72 159 97 241 73 l35 -10 -37 38 c-20
21 -37 41 -37 45 0 3 14 22 31 42 22 25 39 35 60 35 23 0 29 5 29 20 0 32 26
76 62 104 39 31 111 35 164 10z m-1064 -713 c14 -11 40 -55 58 -98 41 -95 47
-103 75 -103 27 0 41 -15 50 -53 6 -23 3 -31 -15 -44 -20 -14 -21 -21 -15 -69
6 -51 5 -53 -22 -67 -65 -33 -71 -32 -93 18 -20 47 -20 47 -60 40 -38 -6 -40
-5 -57 30 -19 40 -19 39 33 71 17 10 16 14 -11 77 -15 37 -34 72 -41 78 -20
17 -48 6 -54 -20 -4 -19 -18 -29 -59 -42 -48 -17 -55 -17 -76 -3 -27 18 -76
12 -95 -11 -18 -22 6 -28 118 -29 96 -1 105 -3 123 -24 82 -102 -27 -227 -198
-227 -65 0 -75 3 -99 27 -15 14 -24 32 -22 40 8 20 108 52 121 39 15 -15 62
-14 76 2 19 23 0 28 -86 21 -95 -8 -131 3 -156 45 -9 16 -17 48 -17 70 0 86
118 157 249 149 68 -3 69 -3 75 23 4 20 18 32 63 52 69 32 102 34 135 8z"/>
<path d="M3293 7268 c-26 -13 -38 -37 -24 -51 11 -11 98 9 108 26 7 12 -25 37
-46 36 -9 0 -26 -5 -38 -11z"/>
<path d="M6537 6332 c-23 -25 -21 -37 10 -61 23 -19 29 -20 47 -7 29 19 31 41
7 65 -26 26 -43 26 -64 3z"/>
<path d="M6255 6301 c-7 -12 12 -24 25 -16 11 7 4 25 -10 25 -5 0 -11 -4 -15
-9z"/>
<path d="M6295 6164 c-19 -19 -8 -42 45 -98 26 -26 43 -37 54 -33 32 13 28 36
-14 86 -49 58 -64 66 -85 45z"/>
<path d="M2280 6730 c-26 -26 -25 -34 5 -87 28 -47 62 -62 101 -44 37 17 32
62 -12 111 -40 45 -64 50 -94 20z"/>
<path d="M1540 5948 c-35 -38 -26 -73 28 -113 57 -42 84 -44 111 -9 38 49 21
89 -56 128 -43 21 -58 20 -83 -6z"/>
<path d="M4086 6440 c-87 -4 -184 -11 -214 -15 -48 -6 -54 -9 -39 -19 22 -17
423 -40 582 -34 67 2 130 10 143 16 92 51 -93 71 -472 52z"/>
<path d="M3365 6291 c-55 -15 -109 -32 -119 -38 -17 -9 -17 -10 -1 -17 18 -6
632 10 720 19 114 13 130 17 110 27 -14 8 -512 39 -595 37 -8 0 -60 -13 -115
-28z"/>
<path d="M4760 6313 c-180 -6 -412 -23 -427 -31 -23 -14 25 -20 222 -31 326
-18 642 -24 650 -12 4 7 -20 24 -69 46 -81 38 -80 38 -376 28z"/>
<path d="M2977 6103 c-43 -20 -76 -41 -74 -47 6 -18 789 -2 970 20 50 6 62 20
25 29 -44 9 -336 24 -588 30 l-255 5 -78 -37z"/>
<path d="M4153 6129 c-85 -20 -75 -52 21 -70 82 -15 559 11 571 32 9 14 -10
18 -141 28 -207 16 -406 20 -451 10z"/>
<path d="M5180 6133 c-476 -33 -451 -59 82 -83 284 -13 300 -9 206 55 -52 34
-54 35 -148 33 -52 -1 -115 -3 -140 -5z"/>
<path d="M4020 5948 c0 -7 30 -44 66 -83 179 -189 346 -396 458 -565 47 -70
199 -351 210 -387 8 -27 32 -47 40 -34 3 5 11 44 18 86 7 47 17 79 26 82 19 8
72 -46 164 -167 84 -111 167 -268 189 -357 7 -29 18 -53 25 -53 6 0 37 60 68
133 54 127 56 136 56 218 0 177 -69 357 -210 548 -45 61 -66 99 -62 110 3 9
23 39 44 67 21 28 38 58 38 66 0 10 -17 20 -47 28 -142 36 -307 86 -448 136
-281 98 -567 184 -616 184 -10 0 -19 -6 -19 -12z"/>
<path d="M5445 5939 c-164 -11 -306 -27 -313 -34 -11 -11 20 -23 77 -29 101
-11 354 -26 459 -26 117 0 123 6 71 65 -30 34 -33 35 -103 34 -39 -1 -125 -6
-191 -10z"/>
<path d="M2737 5932 c-21 -4 -69 -71 -60 -85 8 -13 268 12 295 29 22 14 -19
33 -95 43 -117 17 -120 17 -140 13z"/>
<path d="M3022 5844 c-12 -8 -30 -30 -40 -47 -16 -30 -17 -85 -17 -722 0 -672
1 -691 20 -724 11 -19 32 -42 46 -53 24 -18 32 -19 260 -4 129 9 360 20 514
26 443 16 757 30 930 41 181 11 195 17 233 89 19 39 22 59 22 170 l0 127 -41
59 c-50 72 -69 89 -81 71 -4 -6 -8 -85 -8 -174 0 -133 -3 -164 -16 -177 -8 -9
-18 -16 -22 -16 -4 0 -149 -7 -322 -15 -173 -8 -457 -22 -630 -30 -173 -8
-408 -20 -522 -26 -168 -10 -210 -10 -222 0 -14 12 -16 83 -16 630 0 370 4
622 10 631 8 13 76 15 495 18 396 2 485 5 485 16 0 12 -71 101 -95 118 -5 4
-224 8 -485 8 -415 0 -478 -2 -498 -16z"/>
<path d="M4732 5848 c4 -14 178 -76 216 -77 31 -1 28 24 -7 60 -28 28 -33 29
-121 29 -69 0 -91 -3 -88 -12z"/>
<path d="M2500 5718 c-17 -18 -30 -41 -30 -51 0 -18 6 -19 78 -13 207 18 260
50 127 75 -133 26 -142 25 -175 -11z"/>
<path d="M5460 5739 c-186 -10 -301 -27 -277 -40 22 -13 187 -27 452 -39 309
-14 315 -14 315 8 0 10 -15 32 -33 50 l-33 32 -134 -1 c-74 -1 -205 -6 -290
-10z"/>
<path d="M2368 5573 c-22 -27 -58 -89 -58 -101 0 -6 47 -33 104 -61 225 -108
310 -245 285 -460 -10 -91 -73 -317 -94 -340 -11 -11 -52 -11 -246 -2 -308 15
-404 14 -417 -1 -9 -12 -16 -47 -13 -75 1 -16 178 -17 445 -3 104 6 193 7 198
2 4 -4 -8 -61 -27 -127 -66 -223 -66 -369 -1 -491 36 -67 45 -104 27 -104 -6
0 -36 -25 -69 -55 -124 -114 -174 -291 -127 -452 9 -32 43 -107 75 -168 75
-144 141 -270 225 -430 200 -384 250 -470 307 -528 69 -70 159 -115 257 -128
108 -15 184 5 359 97 201 106 232 126 281 184 93 110 132 261 101 391 -12 52
-80 192 -213 444 -35 66 -121 230 -192 365 -70 135 -140 264 -156 287 -41 60
-104 111 -179 146 -54 25 -81 31 -163 35 -83 4 -107 1 -164 -18 -36 -12 -80
-31 -97 -41 -44 -27 -70 -24 -99 11 -38 45 -51 96 -51 195 0 109 7 142 96 415
83 256 101 342 102 475 1 242 -110 396 -370 516 -96 44 -105 46 -126 22z m806
-1732 c86 -38 125 -81 193 -214 25 -49 33 -74 27 -85 -13 -20 -303 -174 -321
-170 -9 2 -42 55 -75 118 -34 63 -80 152 -104 198 -24 45 -44 88 -44 96 0 19
44 46 110 68 68 22 146 18 214 -11z m-406 -213 c122 -227 165 -316 160 -330
-4 -9 -72 -50 -153 -92 -111 -57 -151 -74 -164 -67 -9 5 -39 56 -66 113 -47
96 -50 108 -49 178 1 79 18 127 72 198 25 32 114 92 139 92 6 0 34 -42 61 -92z
m735 -260 c26 -45 69 -126 225 -423 115 -219 122 -239 122 -329 0 -57 -5 -81
-27 -124 -41 -81 -101 -128 -286 -222 -164 -83 -167 -84 -239 -84 -129 0 -228
64 -293 190 -16 32 -53 101 -81 153 -155 289 -234 445 -234 460 0 12 114 77
383 218 210 111 387 202 394 203 7 0 23 -19 36 -42z"/>
<path d="M5650 5549 c-235 -13 -336 -27 -319 -44 15 -14 456 -45 657 -45 118
0 128 7 92 65 l-22 35 -126 -1 c-70 -1 -197 -6 -282 -10z"/>
<path d="M4104 5542 c-6 -4 -23 -25 -37 -47 l-27 -40 0 -416 c0 -375 2 -418
17 -430 24 -21 230 -20 243 1 15 24 13 913 -2 928 -13 13 -175 17 -194 4z"/>
<path d="M5874 5337 c-121 -67 -144 -83 -144 -101 0 -6 18 -42 40 -80 47 -80
50 -113 14 -147 -14 -13 -47 -53 -72 -87 -43 -61 -47 -64 -81 -59 -20 2 -67
13 -104 23 -63 18 -70 18 -81 3 -6 -9 -29 -78 -51 -153 -33 -118 -37 -138 -24
-150 8 -8 50 -24 94 -37 44 -12 85 -26 91 -31 6 -4 14 -50 18 -101 14 -177 23
-154 -76 -211 -49 -27 -88 -55 -88 -61 0 -14 102 -206 131 -246 25 -36 54 -37
103 -4 95 64 120 68 162 24 16 -17 57 -51 92 -76 34 -25 62 -50 62 -56 0 -7
-12 -52 -26 -100 -28 -94 -25 -110 19 -120 12 -2 70 -19 128 -36 58 -17 116
-31 128 -31 24 0 30 11 60 117 12 40 25 74 29 77 4 2 39 7 77 11 38 3 75 11
81 16 13 10 34 114 34 165 l0 29 -137 0 c-127 0 -144 2 -213 28 -163 61 -296
204 -346 372 -24 80 -24 238 0 320 10 33 33 87 51 121 42 75 161 190 235 226
59 28 163 58 203 58 49 0 53 23 14 104 -19 41 -44 79 -54 84 -11 6 -36 7 -62
2 -25 -4 -49 -6 -55 -4 -6 3 -31 42 -56 87 -32 57 -51 82 -65 84 -11 1 -70
-26 -131 -60z"/>
<path d="M2201 5322 c-23 -32 -27 -57 -11 -67 12 -8 181 11 233 25 81 23 29
50 -129 65 -71 7 -71 7 -93 -23z"/>
<path d="M4400 4990 l0 -359 23 -12 c22 -13 184 -15 219 -3 16 5 18 21 18 148
l0 143 -41 94 c-68 158 -183 349 -210 349 -5 0 -9 -162 -9 -360z"/>
<path d="M3710 5288 c-19 -5 -41 -14 -47 -20 -10 -8 -13 -88 -13 -339 0 -284
2 -330 16 -343 12 -13 39 -16 124 -16 85 0 112 3 124 16 14 13 16 60 16 354 0
325 -1 340 -19 350 -24 13 -154 12 -201 -2z"/>
<path d="M2107 5142 c-23 -25 -33 -78 -15 -84 20 -7 312 12 391 25 135 23 81
44 -168 67 -158 14 -189 13 -208 -8z"/>
<path d="M3280 5047 l-25 -13 -3 -208 -2 -208 36 -34 c34 -33 38 -34 120 -34
128 0 124 -9 124 256 0 129 -4 223 -10 235 -10 17 -22 19 -113 19 -62 0 -112
-5 -127 -13z"/>
<path d="M2031 4949 c-26 -43 -27 -66 -1 -74 19 -6 438 20 513 32 40 6 57 21
37 33 -14 8 -217 27 -402 36 l-127 7 -20 -34z"/>
<path d="M1993 4790 c-23 -9 -41 -69 -28 -91 9 -13 265 -5 452 15 223 24 151
48 -212 71 -49 3 -112 7 -140 10 -27 2 -60 0 -72 -5z"/>
<path d="M6240 4720 c-96 -32 -170 -140 -170 -245 0 -55 28 -129 66 -173 51
-61 104 -84 194 -89 64 -4 82 -1 120 19 45 23 45 23 48 83 4 74 -13 225 -37
325 -14 59 -23 78 -42 87 -35 18 -116 15 -179 -7z"/>
<path d="M1916 4424 c-9 -8 -16 -28 -16 -43 0 -53 10 -55 233 -36 226 19 269
25 274 42 6 17 -16 21 -226 38 -239 19 -246 19 -265 -1z"/>
<path d="M5076 4251 c-4 -5 -15 -38 -26 -73 -30 -99 -40 -108 -113 -109 -34 0
-83 -4 -109 -8 -25 -4 -54 -4 -62 1 -9 5 -32 40 -50 77 -54 106 -47 105 -196
31 -71 -35 -132 -70 -135 -77 -2 -8 13 -50 35 -95 22 -44 40 -84 40 -89 0 -5
-23 -33 -50 -62 -28 -28 -60 -67 -73 -85 -12 -17 -29 -34 -37 -37 -8 -3 -47 6
-85 20 -122 43 -116 47 -170 -116 -36 -109 -44 -144 -35 -154 7 -8 50 -27 96
-42 97 -31 90 -19 99 -175 l6 -107 -87 -43 c-48 -24 -88 -48 -91 -54 -6 -17
117 -263 137 -274 13 -7 36 0 93 30 42 22 82 40 89 40 8 0 32 -18 53 -41 22
-22 61 -56 88 -76 26 -19 47 -42 47 -51 0 -9 -12 -53 -27 -99 -17 -52 -24 -86
-18 -92 18 -16 255 -92 278 -89 18 2 28 19 52 86 16 46 37 87 45 92 8 4 67 9
130 11 l115 4 43 -82 c32 -61 48 -83 63 -83 26 0 259 117 265 134 3 7 -13 50
-35 96 -22 45 -37 88 -33 95 17 27 145 174 156 178 6 2 51 -9 100 -24 48 -16
92 -27 96 -24 8 5 25 49 70 189 27 82 30 100 19 111 -8 7 -51 25 -96 39 -53
18 -84 33 -87 44 -2 9 -6 66 -8 127 l-3 110 79 42 c44 24 83 48 87 55 16 25
-106 266 -138 274 -14 4 -45 -7 -87 -30 -36 -20 -75 -36 -87 -36 -13 0 -49 26
-90 65 -38 36 -74 65 -79 65 -23 0 -20 52 6 130 23 69 25 84 13 94 -16 14
-247 96 -272 96 -9 0 -18 -4 -21 -9z m58 -416 c133 -54 259 -178 305 -301 112
-298 -27 -605 -327 -721 -57 -22 -83 -26 -177 -26 -96 -1 -119 3 -180 26 -185
72 -316 224 -351 410 -18 92 -18 129 1 219 40 192 167 334 358 400 75 26 91
28 192 24 90 -3 122 -9 179 -31z"/>
<path d="M1903 4209 c-7 -7 -13 -20 -13 -29 0 -9 6 -24 13 -33 11 -15 29 -15
227 -1 190 13 245 22 229 38 -8 8 -175 25 -314 31 -98 5 -133 3 -142 -6z"/>
<path d="M1908 4025 c-13 -13 -9 -63 5 -68 29 -11 482 15 496 28 12 13 -25 23
-107 28 -182 13 -387 19 -394 12z"/>
<path d="M1927 3815 c-3 -7 2 -24 12 -36 l18 -23 209 11 c115 6 218 15 228 19
18 7 17 8 -5 16 -24 9 -282 27 -395 28 -45 0 -63 -4 -67 -15z"/>
<path d="M1970 3636 c-8 -11 -9 -20 0 -35 6 -12 14 -21 18 -21 42 1 237 22
245 27 17 10 -29 23 -106 28 -40 3 -88 8 -108 10 -24 3 -41 0 -49 -9z"/>
<path d="M2024 3446 c-3 -9 -3 -23 0 -32 6 -15 18 -16 89 -11 87 6 120 14 112
27 -5 8 -38 14 -138 25 -47 5 -58 4 -63 -9z"/>
<path d="M6105 3404 c-104 -7 -203 -17 -220 -22 l-30 -9 28 -12 c15 -6 125
-16 243 -22 234 -13 226 -14 240 40 8 27 -9 41 -46 40 -14 -1 -110 -8 -215
-15z"/>
<path d="M2090 3251 c0 -36 23 -43 110 -33 81 10 99 16 87 29 -10 9 -93 22
-149 22 -41 1 -48 -2 -48 -18z"/>
<path d="M6081 3214 c-68 -7 -126 -16 -129 -19 -16 -16 29 -28 144 -38 156
-14 171 -13 188 21 28 57 13 60 -203 36z"/>
<path d="M2184 3093 c-16 -11 0 -49 23 -55 28 -7 146 16 150 29 2 6 -9 14 -24
16 -61 12 -139 17 -149 10z"/>
<path d="M6060 3018 c-99 -11 -131 -30 -79 -46 19 -6 64 -14 100 -17 64 -7 67
-6 88 20 16 21 18 31 10 41 -6 8 -17 13 -23 13 -6 -1 -49 -6 -96 -11z"/>
<path d="M2283 2914 c-3 -9 1 -23 10 -31 13 -13 25 -14 68 -7 64 11 75 31 22
39 -21 3 -51 8 -66 10 -19 3 -30 0 -34 -11z"/>
<path d="M5948 2835 c-143 -18 -139 -45 9 -59 66 -6 73 -5 92 15 46 50 23 59
-101 44z"/>
<path d="M2415 2742 c-3 -3 -5 -11 -5 -19 0 -22 44 -33 84 -22 60 17 45 32
-42 42 -17 2 -34 1 -37 -1z"/>
<path d="M5710 2649 c-52 -5 -106 -14 -120 -20 l-25 -11 25 -10 c14 -5 79 -13
145 -18 98 -7 124 -6 142 6 25 16 45 48 36 58 -8 8 -80 6 -203 -5z"/>
<path d="M2582 2562 c-19 -6 -14 -22 11 -31 24 -9 55 -2 57 14 1 11 -48 24
-68 17z"/>
<path d="M5530 2458 c-62 -9 -90 -21 -78 -34 3 -3 53 -10 111 -16 93 -9 108
-8 131 7 15 10 31 26 37 36 9 18 5 19 -63 18 -40 -1 -102 -6 -138 -11z"/>
<path d="M4795 2293 c-597 -12 -714 -18 -698 -34 12 -12 496 -29 933 -32 l335
-2 70 33 c56 26 67 35 54 42 -9 6 -39 9 -65 7 -27 -1 -310 -7 -629 -14z"/>
<path d="M4730 2133 c-251 -5 -787 -24 -858 -30 -47 -4 -70 -9 -63 -16 12 -12
410 -33 874 -46 301 -8 374 -8 405 3 68 24 163 76 157 86 -6 9 -168 10 -515 3z"/>
<path d="M4202 1954 c-238 -7 -440 -18 -450 -23 -37 -21 40 -29 371 -39 353
-12 430 -7 582 32 97 26 100 27 84 37 -16 10 -25 10 -587 -7z"/>
<path d="M7104 5417 c-3 -8 5 -36 16 -63 l22 -49 18 23 c15 19 17 28 8 53 -14
40 -53 62 -64 36z"/>
<path d="M6990 5375 c-29 -35 -1 -111 42 -117 17 -2 30 -19 50 -60 51 -106 47
-60 -5 67 -28 69 -56 125 -63 125 -6 0 -17 -7 -24 -15z"/>
<path d="M7238 5004 c-3 -3 0 -26 6 -52 9 -36 17 -47 32 -47 28 0 32 57 5 84
-21 21 -33 25 -43 15z"/>
<path d="M1073 4668 c-30 -14 -39 -62 -19 -93 17 -26 86 -42 131 -31 47 12 59
93 17 114 -29 16 -106 21 -129 10z"/>
<path d="M7002 3718 c-21 -68 -24 -114 -8 -127 26 -22 44 -5 56 53 15 73 11
100 -17 104 -16 2 -23 -4 -31 -30z"/>
<path d="M7286 3644 c-25 -25 -20 -63 10 -76 23 -11 29 -10 45 11 25 30 24 46
-3 65 -28 20 -33 20 -52 0z"/>
<path d="M1127 3620 c-43 -13 -57 -29 -57 -65 0 -55 39 -75 118 -59 65 13 93
73 52 114 -21 21 -63 25 -113 10z"/>
<path d="M1495 2750 c-9 -14 31 -67 55 -75 40 -13 53 22 24 63 -16 23 -67 31
-79 12z"/>
<path d="M2110 1929 c-45 -47 -54 -94 -22 -122 22 -20 61 -22 82 -4 32 25 70
79 70 98 0 26 -43 69 -70 69 -11 0 -38 -19 -60 -41z"/>
<path d="M3167 1283 c-12 -11 -8 -135 4 -128 16 11 69 87 69 101 0 6 -14 17
-31 23 -38 13 -34 13 -42 4z"/>
<path d="M6355 2098 c-35 -27 -31 -54 14 -99 42 -42 64 -48 99 -23 31 22 27
48 -13 93 -44 48 -67 55 -100 29z"/>
<path d="M6022 1824 c-15 -10 -22 -25 -22 -49 0 -29 -8 -40 -55 -77 -58 -45
-59 -46 -47 -66 6 -9 14 -4 30 17 12 16 56 55 99 87 103 76 98 71 83 89 -16
19 -59 19 -88 -1z"/>
<path d="M6117 1715 c-39 -27 -47 -49 -22 -59 35 -13 85 27 85 68 0 23 -20 20
-63 -9z"/>
</g>
</svg>
